<svg width="47" height="20" viewBox="0 0 47 20" fill="none" xmlns="http://www.w3.org/2000/svg">
<rect width="47" height="20" rx="5.33333" fill="url(#paint0_linear_27507_45027)"/>
<path d="M7.718 10.034V16.287H6.483V10.177C6.093 11.347 5.586 12.413 4.988 13.375L4.455 12.01C5.339 10.827 5.989 9.475 6.379 7.967H4.689V6.784H6.483V4.353H7.718V6.784H9.174V7.967H7.718V8.617C8.277 9.189 8.849 9.839 9.434 10.541L8.706 11.633C8.329 10.996 8.004 10.463 7.718 10.034ZM10.188 5.952H8.823V4.769H15.076V5.562C14.855 6.641 14.634 7.577 14.413 8.37H15.986V9.059C15.713 10.801 15.154 12.27 14.309 13.453C14.959 14.116 15.726 14.714 16.584 15.234L15.778 16.287C14.92 15.728 14.166 15.104 13.529 14.402C12.762 15.182 11.839 15.832 10.773 16.326L10.097 15.195C11.124 14.701 11.982 14.09 12.684 13.388C12.047 12.504 11.54 11.542 11.176 10.502C10.812 12.972 10.071 14.896 8.94 16.261L7.991 15.429C9.421 13.687 10.162 10.892 10.188 7.07V5.952ZM13.438 12.478C14.062 11.581 14.504 10.567 14.751 9.449H12.957C13.204 8.643 13.477 7.486 13.776 5.952H11.41V7.07C11.41 7.278 11.397 7.486 11.397 7.681C11.709 9.514 12.385 11.113 13.438 12.478ZM21.576 5.315H24.774V4.379H25.931V5.315H29.103V6.433H25.931V7.304H28.713V10.788H25.931V14.61H24.774V11.451C24.124 12.465 23.188 13.349 21.979 14.103L21.212 13.128C22.512 12.465 23.461 11.685 24.059 10.788H21.992V7.304H24.774V6.433H21.576V5.315ZM27.582 9.722V8.37H25.931V9.722H27.582ZM24.774 9.722V8.37H23.136V9.722H24.774ZM27.01 11.048C27.868 11.737 28.583 12.426 29.181 13.128L28.362 13.934C27.842 13.271 27.127 12.556 26.217 11.802L27.01 11.048ZM18.755 4.47C19.639 5.159 20.38 5.848 20.978 6.524L20.107 7.382C19.587 6.732 18.859 6.03 17.91 5.276L18.755 4.47ZM26.217 16.118C25.502 16.118 24.722 16.105 23.89 16.092C23.045 16.079 22.356 16.001 21.823 15.871C21.303 15.715 20.848 15.403 20.458 14.961C20.276 14.74 20.12 14.636 19.964 14.636C19.691 14.636 19.223 15.221 18.56 16.391L17.65 15.546C18.3 14.493 18.885 13.83 19.405 13.57V9.891H17.663V8.747H20.562V13.661C20.627 13.713 20.692 13.778 20.757 13.856C21.056 14.207 21.368 14.467 21.693 14.636C22.083 14.818 22.655 14.935 23.422 14.961C24.15 14.974 25.034 14.987 26.048 14.987C26.685 14.987 27.335 14.974 27.985 14.961C28.635 14.948 29.142 14.922 29.506 14.896L29.194 16.118H26.217ZM31.69 4.47C32.574 5.146 33.315 5.809 33.939 6.485L33.029 7.395C32.509 6.745 31.781 6.043 30.845 5.289L31.69 4.47ZM39.503 16.118C38.762 16.118 37.956 16.105 37.085 16.092C36.201 16.079 35.473 16.001 34.927 15.871C34.368 15.715 33.887 15.403 33.497 14.961C33.315 14.74 33.133 14.636 32.977 14.636C32.704 14.636 32.223 15.234 31.547 16.443L30.637 15.598C31.3 14.519 31.898 13.843 32.418 13.57V9.917H30.65V8.721H33.601V13.661C33.666 13.713 33.731 13.778 33.796 13.856C34.121 14.194 34.446 14.454 34.784 14.623C35.187 14.805 35.798 14.909 36.604 14.935C37.371 14.948 38.281 14.961 39.334 14.961C39.919 14.961 40.517 14.948 41.141 14.948C41.752 14.922 42.22 14.896 42.558 14.87L42.259 16.118H39.503ZM34.589 7.135H37.371C37.436 6.511 37.475 5.874 37.488 5.224V4.353H38.723V4.951C38.723 5.718 38.684 6.446 38.606 7.135H41.752V8.331H38.424C38.359 8.63 38.294 8.916 38.229 9.189C39.347 10.138 40.66 11.477 42.142 13.206L41.258 14.09C40.218 12.738 39.087 11.49 37.865 10.333C37.241 11.971 36.279 13.219 34.979 14.09L34.225 13.076C35.746 12.101 36.734 10.515 37.189 8.331H34.589V7.135Z" fill="white"/>
<defs>
<linearGradient id="paint0_linear_27507_45027" x1="13.0464" y1="31.8207" x2="34.8471" y2="-5.14549" gradientUnits="userSpaceOnUse">
<stop stop-color="#DE1C24"/>
<stop offset="0.999604" stop-color="#FF7A20"/>
</linearGradient>
</defs>
</svg>
