<svg width="142" height="23" viewBox="0 0 142 23" fill="none" xmlns="http://www.w3.org/2000/svg">
<path d="M13.7607 2.53711L5.0752 11.2236L13.7607 19.9004L11.2236 22.4375L0 11.2236L11.2236 0L13.7607 2.53711ZM27.5137 11.2236L16.2988 22.4375L13.7617 19.9004L22.4385 11.2236L13.7617 2.53711L16.2988 0L27.5137 11.2236ZM58.3271 20.3555C58.3272 21.1466 58.5823 21.6738 59.3008 21.6738C60.0191 21.6737 60.2734 21.1557 60.2734 20.3555V17.6631H61.2109V20.6465C61.2109 21.9014 60.5012 22.4111 59.3008 22.4111C58.1003 22.4111 57.3907 21.9015 57.3906 20.6465V17.6631H58.3271V20.3555ZM47.7783 17.5713C48.0875 17.5714 48.4967 17.6354 48.833 17.7627L48.7695 18.5537C48.4149 18.3536 48.0962 18.3086 47.7598 18.3086C46.7957 18.3086 46.1954 19.0451 46.1953 20C46.1953 20.955 46.7869 21.665 47.7783 21.665C48.1511 21.665 48.5784 21.5827 48.8057 21.4736L48.8506 22.2559L48.8418 22.2646C48.4964 22.3465 48.1328 22.4101 47.7783 22.4102C46.2686 22.4102 45.213 21.6556 45.2129 20.0732C45.2129 18.4907 46.1958 17.5713 47.7783 17.5713ZM52.7412 21.6006H54.5518V22.3291H51.8047V17.6631H52.7412V21.6006ZM66.166 17.6631C66.7754 17.6631 67.667 17.8359 67.667 18.8545C67.667 19.4093 67.2941 19.8003 66.7393 19.9004V19.9189C67.3758 19.9826 67.8123 20.4096 67.8125 20.9824C67.8125 22.1557 66.7572 22.3291 66.166 22.3291H64.5293V17.6631H66.166ZM65.4658 21.5918H65.9023C66.3389 21.5918 66.8672 21.4829 66.8672 20.9463C66.8671 20.3371 66.3753 20.2461 65.9023 20.2461H65.4658V21.5918ZM65.4658 19.5459H65.8477C66.2387 19.5459 66.7305 19.4544 66.7305 18.9814C66.7302 18.4362 66.2574 18.3994 65.8301 18.3994H65.4658V19.5459ZM39.3174 0.12793C40.4451 0.12793 41.2909 0.492039 41.8457 0.728516C42.1456 0.855732 42.3822 0.954896 42.5459 0.955078C42.8186 0.955078 42.9916 0.864511 43.1553 0.646484V0.62793H43.7744V0.673828C43.6926 1.39225 43.6562 2.03815 43.6562 2.64746V4.48438H43.0195V4.43848C42.8102 2.11055 41.6187 0.773625 39.7363 0.773438C37.9537 0.773438 36.7617 1.95637 36.7617 3.62988C36.7619 5.30309 37.899 5.8668 39.918 6.72168C42.6283 7.86766 44.2832 8.84134 44.2832 11.6699C44.2831 14.4984 42.264 16.3896 39.2627 16.3896C38.1259 16.3896 37.2711 16.1076 36.6436 15.8984C36.289 15.7803 36.007 15.6895 35.7979 15.6895C35.5432 15.6895 35.388 15.7625 35.2334 15.9717V15.9902H34.6426V15.9443C34.6971 15.3532 34.7334 14.6802 34.7334 13.8799V11.4512H35.4336V11.4873C35.7155 14.1885 36.9709 15.6718 38.999 15.6719C40.909 15.6719 42.2373 14.4073 42.2373 12.6064C42.2373 11.8607 42.0277 11.2607 41.6094 10.7695C41.0091 10.0601 40.1091 9.68655 39.0723 9.25C38.6994 9.09538 38.3169 8.94069 37.9258 8.75879C35.8341 7.76743 34.8613 6.41215 34.8613 4.49316C34.8615 1.95585 36.7346 0.128011 39.3174 0.12793ZM75.0811 5.86719C75.8085 5.86725 76.354 6.10321 76.7178 6.25781C76.8904 6.33051 77.036 6.39442 77.127 6.39453C77.2724 6.39453 77.3635 6.34866 77.4453 6.23047L77.4727 6.18457H77.9824L77.9639 6.29395C77.9184 6.75773 77.8916 7.15809 77.8916 7.54004V8.77734H77.3545V8.68652C77.2363 7.24957 76.4542 6.42198 75.3447 6.42188C74.2351 6.42188 73.5254 7.14931 73.5254 8.16797C73.5255 9.18635 74.1894 9.52281 75.4805 10.0684C77.2358 10.8051 78.3008 11.4424 78.3008 13.2705C78.3006 15.0985 76.9902 16.335 75.0439 16.335C74.3165 16.3349 73.7705 16.153 73.3613 16.0166C73.1345 15.944 72.9619 15.8898 72.8438 15.8896C72.6984 15.8896 72.6254 15.9351 72.5527 16.0439L72.5254 16.0898H72.043V15.9805C72.0884 15.6167 72.1064 15.1893 72.1064 14.6709V13.0605H72.6982V13.1523C72.8711 14.8528 73.6256 15.7441 74.8896 15.7441C76.0629 15.7441 76.8721 14.9797 76.8721 13.8701C76.872 13.4155 76.7539 13.052 76.4902 12.752C76.1173 12.3154 75.5533 12.0785 74.8984 11.8057L74.1709 11.4873C72.9008 10.882 72.2616 10.069 72.1865 8.94336L72.1797 8.7041C72.1798 7.05803 73.3985 5.86719 75.0811 5.86719ZM118.268 11.7607C118.167 12.6428 117.904 13.3705 117.485 13.9434C119.359 14.3071 120.596 14.8074 121.178 15.4258C121.369 15.7441 121.369 15.99 121.178 16.1719C120.914 16.3535 120.623 16.3438 120.305 16.1348C120.214 16.0801 120.05 15.944 119.823 15.708C119.077 15.0895 118.268 14.5521 117.395 14.1064C116.558 15.0978 115.239 15.8262 113.466 16.29L113.42 16.1807C115.466 15.1347 116.548 13.6704 116.676 11.7695L116.667 11.7607H118.268ZM126.233 6.79395C127.334 6.66665 128.025 6.77581 128.325 7.14844C128.453 7.43945 128.389 7.66741 128.135 7.8584H131.682V8.48535H128.907L129.972 8.79492C129.653 9.28606 129.225 9.70449 128.707 10.041H129.826L130.263 9.56836L131.627 9.87695L131.19 10.3867V15.3076C131.354 15.8531 130.78 16.1714 129.489 16.2441C129.262 16.2713 129.153 16.1894 129.153 16.0078C129.117 15.6167 128.762 15.3983 128.089 15.3438V15.1885C129.48 15.243 130.08 15.171 129.881 14.9893V10.7773H125.315V12.2607C125.797 11.7696 126.143 11.2874 126.334 10.8145L127.598 11.0869C126.952 11.7689 126.188 12.2333 125.315 12.4971V16.1709H123.95V9.76855H125.315V10.041H126.143C126.043 10.0137 125.961 9.8955 125.897 9.68652C125.734 9.29548 125.515 8.95899 125.215 8.66797L125.261 8.5498C126.333 8.70438 126.943 8.99499 127.106 9.41309C127.17 9.67685 127.07 9.8864 126.815 10.041H127.935C128.189 9.64994 128.407 9.13135 128.562 8.47656H123.414V7.84863H126.861C126.761 7.76678 126.679 7.6487 126.615 7.49414C126.515 7.23054 126.37 7.02174 126.179 6.86719L126.233 6.79395ZM95.4082 6.80371C95.4082 7.14023 95.3723 7.64989 95.3086 8.33203H95.5537L95.8906 7.94043L97.1094 8.37695L96.7725 8.68652C96.7725 9.15946 96.7456 9.75975 96.6729 10.4873V10.5234H97.0635L97.209 6.8125H98.4189V7.28613H100.074L100.465 6.8125L101.82 7.12207L101.429 7.5127L101.329 10.5146H101.766V11.2236H101.329L101.283 13.8438H101.575V14.5439H101.229V15.1709C101.293 15.853 100.665 16.1993 99.3369 16.2266C99.1735 16.2809 99.0918 16.2169 99.0918 16.0352C99.028 15.7169 98.673 15.4896 98.0273 15.335V15.2168C99.3186 15.3259 99.9734 15.2804 99.9736 15.0986V14.5527H98.1729L97.6914 14.9443L96.5723 14.3164L96.9092 14.0801L97.0547 11.2334H96.5635C96.4361 12.2246 96.1906 13.016 95.8359 13.6162C96.2268 13.9253 96.4994 14.2436 96.6631 14.5527C96.8904 14.971 96.8089 15.3076 96.418 15.5713C96.0633 15.6986 95.7899 15.544 95.5898 15.1074C95.4989 14.8256 95.3812 14.5979 95.2539 14.4434C94.9629 14.8345 94.3345 15.3618 93.3613 16.0439L93.2617 15.9629C93.9075 15.3353 94.4263 14.5984 94.8174 13.7344C94.49 13.3706 94.0712 12.9789 93.5527 12.5605C93.7801 11.542 93.9442 10.3775 94.0352 9.0498H93.4072V8.34082H94.0898C94.0898 8.15895 94.1075 7.9225 94.1348 7.64062C94.1711 7.24984 94.1806 6.97695 94.1807 6.82227L94.1895 6.80371H95.4082ZM111.382 12.542H108.126C107.444 13.5334 106.616 14.3255 105.652 14.9258C106.562 14.9531 107.726 14.9077 109.154 14.8076C108.736 14.1073 108.326 13.6062 107.944 13.3242L108.044 13.252C109.563 13.7976 110.573 14.4431 111.055 15.207C111.282 15.6526 111.2 15.9715 110.81 16.1807C110.355 16.3353 110.017 16.2074 109.79 15.7891C109.626 15.4801 109.481 15.2434 109.354 15.0889C108.38 15.4981 106.652 15.8535 104.151 16.1445C104.179 16.1445 104.125 15.7166 103.961 14.8525C104.352 14.8798 104.624 14.8887 104.788 14.8887C105.497 14.0065 105.989 13.2241 106.243 12.542H103.523V11.8789H111.382V12.542ZM138.903 10.0049H141.578V10.751H138.903V12.124H139.822L140.259 11.6875L141.623 12.1602L141.232 12.6328V16.1895H139.822V15.6436H136.566V16.1533H135.156V11.8145H136.566V12.1328H137.394V8.98633H138.903V10.0049ZM88.2246 14.8428H89.6797V7.93066H91.1348V16.1348H89.6797V15.4707H85.2598L84.8682 15.8613L83.5039 15.3887L83.8408 15.0801V7.93066H85.2959V14.8428H86.751V6.83984H88.2246V14.8428ZM49.5205 5.83984C51.6215 5.83984 52.6221 6.97644 52.6221 9.35938V9.73242L52.5127 13.1611C52.5127 13.9978 52.5132 14.7621 52.5859 15.3896L53.9502 15.5254V15.9893H50.8125L50.7578 14.9434C49.6938 15.7345 48.6206 16.1073 47.5566 16.1074C46.1197 16.1074 45.1916 15.1985 45.1914 13.8799C45.1914 12.0245 47.0377 10.9322 50.7939 10.4502L50.8672 8.59473V8.33105C50.8671 6.92169 50.2847 6.29405 49.0117 6.29395C48.0385 6.29395 47.3193 6.73089 47.3193 7.38574C47.3194 7.62239 47.3926 8.27733 47.3926 8.54102C47.3924 8.96829 47.0467 9.32319 46.6104 9.32324C46.1739 9.32324 45.8371 8.9774 45.8369 8.54102L45.8643 8.39355C45.9967 6.88927 47.4853 5.83992 49.5205 5.83984ZM136.757 6.83984C137.83 6.75799 138.458 6.90377 138.658 7.26758C138.785 7.50389 138.767 7.7216 138.612 7.93066H141.669V8.55859H135.011V10.5957C135.074 13.1968 134.456 15.0345 133.165 16.0986L133.064 16.0166C133.456 15.3345 133.629 13.7884 133.602 11.3691V7.50391H135.011V7.93066H137.294C137.194 7.85794 137.13 7.74924 137.094 7.62207C137.03 7.35841 136.903 7.131 136.712 6.92188L136.757 6.83984ZM57.708 5.97559V7.57617C59.1723 6.60299 60.3276 6.09375 61.3008 6.09375C62.392 6.09385 63.2012 6.63025 63.665 7.66699C65.2202 6.60293 66.4936 6.09382 67.4668 6.09375C69.4405 6.09375 70.0596 7.4853 70.0596 10.3594V11.541C70.0596 12.4869 70.0588 13.7698 69.9951 15.3887L71.1777 15.5254V15.9893H66.8398V15.5254L68.1582 15.3613C68.2764 14.3154 68.3037 13.024 68.3037 11.4688C68.3037 8.50374 68.1582 7.1758 66.3574 7.17578C65.7117 7.17578 64.8474 7.47637 63.8105 8.14941C63.9015 8.95878 63.9287 9.85908 63.9287 10.8594V15.3799L65.1572 15.5156V15.9795H60.8457V15.5156L62.1006 15.3525C62.1733 14.2885 62.1738 12.9878 62.1738 11.46C62.1738 8.4405 61.9826 7.16711 60.2002 7.16699C59.5544 7.16699 58.6897 7.46655 57.7256 8.1123V13.1426C57.7256 13.979 57.7261 14.7427 57.7988 15.3701L59.1631 15.5068V15.9707H54.5068V15.5068L55.8711 15.3701C55.9166 14.7427 55.9619 13.9972 55.9619 13.1426V8.89453C55.9619 8.08516 55.9166 7.36634 55.8711 6.69336L54.4336 6.62988L54.5068 6.16602L57.7256 5.95703L57.708 5.97559ZM50.8213 10.8232C48.0837 11.2143 46.8106 11.9149 46.8105 13.5156C46.8105 14.5616 47.4837 15.2529 48.5479 15.2529C49.2663 15.2529 49.967 14.9979 50.749 14.5068V13.9072C50.749 12.9522 50.7758 11.9329 50.8213 10.8232ZM129.535 12.4238L129.198 12.8516V15.0342H127.989V14.7246H127.116V15.0801H125.951V12.3418H127.116V12.5781H127.943L128.232 12.1885L129.535 12.4238ZM136.566 14.9619H139.822V12.8516H136.566V14.9619ZM121.333 10.2686L120.896 10.8145V14.3711H119.441V11.2051H115.412V14.3711H113.956V10.1143H115.412V10.4688H119.396L119.83 9.99707L121.333 10.2686ZM127.106 14.1064H127.979V13.2061H127.106V14.1064ZM98.1641 13.834H100.011L100.056 11.2148H98.2637L98.1641 13.834ZM98.4551 11.7148C99.3917 11.9513 99.8196 12.3699 99.7197 12.9609C99.6834 13.2246 99.5284 13.3704 99.2285 13.3887C98.9011 13.3887 98.7278 13.2703 98.6914 13.043C98.7278 12.5974 98.646 12.2246 98.4551 11.9062C98.4188 11.8609 98.4092 11.8154 98.4092 11.7881L98.4551 11.7061V11.7148ZM95.2627 9.03223C95.0717 10.6964 94.8262 11.9242 94.5352 12.6973C94.7319 12.8046 94.9022 12.921 95.0635 13.0459C95.4532 11.8741 95.6268 10.5394 95.5996 9.03223H95.2627ZM128.232 12.1885L128.226 12.1875H128.234L128.232 12.1885ZM127.979 10.8594C128.953 10.9685 129.481 11.2507 129.581 11.7236C129.481 12.1965 129.171 12.2968 128.662 12.0332C128.662 12.0059 128.643 11.9695 128.616 11.915C128.516 11.6331 128.289 11.3141 127.935 10.9775L127.979 10.8594ZM109.79 10.8145H104.733V10.1143H109.79V10.8145ZM108.035 6.87598C107.935 7.03044 107.871 7.14862 107.844 7.23047C108.908 8.22184 110.173 8.88583 111.628 9.23145C111.728 9.24964 111.728 9.29539 111.628 9.34082C111.137 9.60458 111.027 9.96876 111.291 10.4326C111.327 10.5144 111.327 10.5684 111.291 10.5957C111.255 10.623 111.191 10.6229 111.101 10.5957C109.545 10.0773 108.362 9.0864 107.553 7.62207C106.807 8.7134 105.361 9.69589 103.232 10.5508L103.133 10.4775C104.461 9.40434 105.48 8.21292 106.198 6.87598H108.035ZM98.2637 10.5059H100.064L100.11 7.96777H98.3643L98.2637 10.5059ZM98.6006 8.43164C99.4373 8.74088 99.8469 9.15046 99.8105 9.6416C99.8105 9.93245 99.6465 10.0958 99.3193 10.1504C98.9919 10.1777 98.8186 10.0508 98.7822 9.75977V9.48633C98.7821 9.09544 98.6821 8.76824 98.4912 8.51367L98.5918 8.43164H98.6006ZM119.83 9.99707L119.823 9.99609H119.832L119.83 9.99707ZM119.577 6.67578L121.032 6.94922L120.596 7.49512V9.7959H119.132V9.4502H115.73V9.7959H114.274V6.78516H115.73V7.09473H119.132L119.568 6.66699L119.577 6.67578ZM115.739 8.75H119.141V7.8125H115.739V8.75ZM71.2422 6.64844H70.8242L71.1064 3.94727H72.543L71.2422 6.64844Z" fill="white"/>
</svg>
