<svg width="36" height="36" viewBox="0 0 36 36" fill="none" xmlns="http://www.w3.org/2000/svg">
<rect x="-1" y="18" width="27" height="27" rx="5" transform="rotate(-45 -1 18)" fill="#222427" fill-opacity="0.4"/>
<g clip-path="url(#clip0_313_33089)">
<path d="M18.456 12.5044V15.0145C17.1128 15.4017 15.6569 15.3351 13.6154 17.4505C11.0152 20.1447 10.1527 22.7292 10.5989 24.0001C11.4666 23.0644 13.0263 22.1225 14.4026 21.5803C16.2008 20.8719 17.5967 20.7002 18.456 20.6769V23.2887C18.456 24.181 19.536 24.6265 20.1652 23.9938L25.4825 18.6455C25.868 18.2577 25.8706 17.6322 25.4882 17.2412L20.1709 11.8052C19.5442 11.1645 18.456 11.6082 18.456 12.5044Z" fill="white"/>
</g>
<defs>
<clipPath id="clip0_313_33089">
<rect width="16" height="16" fill="white" transform="translate(10 10)"/>
</clipPath>
</defs>
</svg>
